<?xml version="1.0" encoding="utf-8"?>
<!-- Generator: Adobe Illustrator 19.2.0, SVG Export Plug-In . SVG Version: 6.00 Build 0)  -->
<svg version="1.1" id="Layer_1" xmlns="http://www.w3.org/2000/svg" xmlns:xlink="http://www.w3.org/1999/xlink" x="0px" y="0px"
	 viewBox="0 0 700 80" style="enable-background:new 0 0 700 80;" xml:space="preserve">
<style type="text/css">
	.st0{fill:#BE1E2D;}
	.st1{fill:#FFFFFF;}
	.st2{font-family:'Futura-Medium';}
	.st3{font-size:51.4911px;}
	.st4{letter-spacing:0.9;}
</style>
<g>
	<path class="st0" d="M27.1,42c0-1.3,0-2.6,0-3.9c0-0.2,0.1-0.4,0.1-0.6c0.3-5.7,2.1-10.9,4.9-15.8c1.6-2.8,3.7-5.1,5.9-7.4
		c2.7-2.7,5.9-4.9,9.3-6.4C57.3,3.5,67.2,3.4,77,8.4c3.7,1.9,7,4.2,9.7,7.3c1.9,2.1,3.6,4.3,5,6.8c2.9,5.2,4.4,10.6,4.6,16.5
		c0.2,6.5-1.2,12.7-4.4,18.3c-1.3,2.4-3,4.6-4.7,6.7c-2.5,3-5.5,5.3-8.9,7.1c-11.7,6-23.3,5.9-34.6-1.1c-3-1.8-5.7-4.1-7.9-6.8
		c-1.8-2.2-3.4-4.4-4.7-7c-1.7-3.5-2.9-7.1-3.5-10.9C27.4,44.2,27.2,43.1,27.1,42z M90.8,54.1c0,0-0.1-0.1-0.1-0.1
		c-1.9,1.2-4,2-6.2,2.5c-0.1,0-0.3,0.2-0.4,0.2c-0.5,0.4-1,1-1.6,1.3c-3,1.4-5.8,0.8-8.6-0.8c-0.3-0.2-0.6-0.3-0.9-0.3
		c-1.9-0.1-3.9,0-5.8-0.3c-2.9-0.3-5.7-0.8-8.6-1.3c-4.1-0.7-8.1-1.6-12.3-1.4c-4,0.2-7.8,1-10.9,3.8c-0.4,0.4-0.6,0.6-0.2,1.1
		c1.4,1.7,2.8,3.3,4.2,5c0.1,0.1,0.4,0.1,0.5,0c0.6-0.1,1.2-0.3,1.8-0.3c1.3,0,2.7,0.1,4,0.3c5.2,0.5,9.9,2.3,14.2,5.2
		c1.3,0.9,2.6,1.9,3.6,3c0.6,0.8,1.2,0.7,1.9,0.6c3-0.4,5.8-1.1,8.5-2.3c4-1.8,7.7-4,10.6-7.4c1.6-1.8,3-3.7,4.4-5.6
		C89.8,56.4,90.2,55.2,90.8,54.1z M83.4,15.6c-0.4,0.5-0.7,0.8-1,1.2c-2.5,2.9-5.7,4.7-9.3,5.8c-1.5,0.5-3.2,0.7-4.8,0.8
		c-5.5,0.3-10.8-0.4-16.2-1.3c-3.7-0.6-7.4-0.9-11.1-0.7c-1.9,0.1-3.8,0.4-5.6,1c-0.7,0.2-1.1,0.5-1.4,1.1c-1.6,2.7-2.7,5.6-3.5,8.7
		c0,0.1,0,0.3,0,0.5c0.3-0.2,0.5-0.4,0.7-0.6c1.7-1.4,3.7-2.5,5.7-3.4c3.4-1.4,7-1.6,10.6-0.7c2.7,0.7,5.4,1.6,8.1,2.5
		c8.9,3,17.7,2.8,26.1-1.8c2.6-1.4,5-3.1,7.2-5.1c0.3-0.3,0.4-0.5,0.1-0.9c-0.5-0.8-1-1.6-1.5-2.3C86.2,18.7,84.8,17.2,83.4,15.6z
		 M93.9,38.7c-0.4,0.2-0.6,0.4-0.8,0.6c-2.1,1.3-4.1,2.8-6.3,3.9c-9.3,4.6-18.9,5.8-28.9,2.9c-3.2-0.9-6.4-1.9-9.6-2.5
		c-6.1-1.2-11.4,0.4-15.9,4.8c-0.3,0.3-0.6,0.6-1,0.8c-0.4,0.2-0.4,0.5-0.3,0.9c0.6,1.5,1.2,2.9,1.8,4.4c0.1,0.2,0.2,0.3,0.3,0.4
		c0.7-0.5,1.3-0.9,1.9-1.3c4.1-2.6,8.6-3.3,13.3-3.1c4.2,0.2,8.3,1,12.4,1.7c2.9,0.5,5.9,0.9,8.9,0.7c2.9-0.2,5.7-0.5,8.6-0.7
		c1.6-0.1,3.2-0.1,4.6,0.5c0.7,0.3,1.4,0.3,2.1,0.1c0.3-0.1,0.6-0.2,0.9-0.3c1.8-0.7,3.5-1.6,4.9-3.1c0.6-0.6,1.2-1.1,1.9-1.7
		c0.2-0.2,0.5-0.4,0.5-0.7c0.3-1.8,0.6-3.6,0.7-5.4C94,40.8,93.9,39.8,93.9,38.7z M37.8,18.1c0.1,0,0.1,0.1,0.1,0.1
		c0.5,0,0.9-0.1,1.4-0.1c4.2-0.4,8.4,0,12.6,0.5c4.4,0.6,8.9,1.3,13.3,1.3c3.8-0.1,7.4-0.6,10.8-2.5c1.8-1,3.3-2.3,4.5-4
		c-0.9-0.7-1.5-1.2-2.8-0.7c-8,2.9-15.7,2.1-23.1-2.1c-0.8-0.5-1.7-0.9-1.7-2.1C46.9,10.2,41.9,13.3,37.8,18.1z M34.9,33.7
		c0.2-0.1,0.5-0.2,0.7-0.2c2.9-0.9,5.9-1.1,8.9-0.5c3.1,0.6,5.9,1.8,8.8,3.1c4.2,1.9,8.5,2.8,13.1,2.5c4.5-0.3,8.9-1.2,13.2-2.9
		c4-1.6,8-3.2,12-4.8c0.3-0.1,0.6-0.3,0.9-0.4c-0.5-1.4-1-2.8-1.6-4.2c-0.8,0.6-1.4,1.2-2,1.7c-0.6,0.5-1.3,1.1-2,1.6
		c-6.6,4.5-14,6.6-22,6.3c-2.5-0.1-4.9-0.5-7.2-1.3c-2.3-0.8-4.6-1.6-6.9-2.3c-3.9-1.3-7.8-1.7-11.7-0.5
		C37.6,32,36.2,32.7,34.9,33.7z M56.7,7.5c3.3,3.1,14.9,4.6,17.9,2.5C68.9,7.4,63,6.5,56.7,7.5z"/>
</g>
<text transform="matrix(1.1331 0 0 1 101.4224 58.4854)" class="st1 st2 st3 st4">MARS STREET VIEW</text>
</svg>
